<svg width="21" height="20" viewBox="0 0 21 20" fill="none" xmlns="http://www.w3.org/2000/svg">
<path d="M19.8837 6.69383L13.9457 6.18057L11.6269 0.742401C11.2098 -0.247467 9.78662 -0.247467 9.36949 0.742401L7.05072 6.19279L1.12498 6.69383C0.0453417 6.77938 -0.396329 8.12364 0.425669 8.83244L4.92825 12.7186L3.5787 18.4867C3.33333 19.5377 4.47431 20.3687 5.40673 19.8065L10.4982 16.7514L15.5897 19.8188C16.5221 20.3809 17.6631 19.5499 17.4177 18.4989L16.0682 12.7186L20.5707 8.83244C21.3927 8.12364 20.9633 6.77938 19.8837 6.69383ZM10.4982 14.4661L5.8852 17.2402L7.11207 12.0098L3.03888 8.49026L8.41254 8.02588L10.4982 3.10098L12.5961 8.0381L17.9698 8.50248L13.8966 12.022L15.1235 17.2524L10.4982 14.4661Z" fill="#1A1C23"/>
</svg>
